<svg xmlns="http://www.w3.org/2000/svg" width="69.136" height="23.891" viewBox="0 0 69.136 23.891"><defs><style>.a{fill:#fff;fill-rule:evenodd;}</style></defs><g transform="translate(0 0)"><path class="a" d="M71.97,66.119c-1.266-1.568-7.355-3.5-11.454-.482A7.662,7.662,0,0,0,57.5,74.318c.783,1.809,2.17,3.014,4.1,4.461,1.809,1.206.9,3.256-1.146,3.316a9.849,9.849,0,0,1-6.028-1.99L52.68,85.35a10.639,10.639,0,0,0,7.234,2.592A8.817,8.817,0,0,0,68.233,83a6.905,6.905,0,0,0-.241-6.149,28.65,28.65,0,0,0-3.617-3.617,1.949,1.949,0,0,1-.483-2.532c.361-.6,1.87-1.989,6.39.482ZM22,64.492H14.59L2.834,87.1H8.8l2.713-5.3h5.606l.061,5.3h5.064L22,64.492Zm-7.9,12.358L17,71.183l.061,5.667H14.108ZM26.154,64.492h5.787l.241,15.794,8.2-15.794h5.968L34.594,87.1H26.516ZM41.767,87.1h5.546l7.6-22.606H49.363L41.767,87.1Zm26.685-.921a.979.979,0,0,0-1.384,1.384.976.976,0,0,0,1.384,0,.949.949,0,0,0,.286-.694.939.939,0,0,0-.287-.69Zm-.1,1.29a.839.839,0,0,1-1.191,0,.853.853,0,0,1,0-1.2.84.84,0,0,1,1.435.6A.823.823,0,0,1,68.356,87.467Z" transform="translate(-2.834 -64.051)"/><path class="a" d="M178.291,125.394a.159.159,0,0,1-.009-.056q0-.04,0-.08v-.079a.3.3,0,0,0-.058-.167.263.263,0,0,0-.186-.1.414.414,0,0,0,.156-.052.235.235,0,0,0,.105-.212.266.266,0,0,0-.167-.272.825.825,0,0,0-.293-.038h-.376v1.074h.19v-.423h.149a.451.451,0,0,1,.211.035.262.262,0,0,1,.1.246v.085l0,.035a.054.054,0,0,0,0,.012l0,.01h.177Zm-.29-.566a.512.512,0,0,1-.18.024h-.17v-.389h.161a.487.487,0,0,1,.228.04.194.194,0,0,1-.039.326Z" transform="translate(-112.93 -102.057)"/></g></svg>