<svg xmlns="http://www.w3.org/2000/svg" width="92.15" height="20.356" viewBox="0 0 92.15 20.356"><defs><style>.a{fill:#fff;}</style></defs><g transform="translate(-1.837 -1.394)"><path class="a" d="M507.914,15.755l-.047-.179-.006-3.889.583.023c2.145.207,3.9-.162,4.939,1.678a1.584,1.584,0,0,1-.2,1.75c-1.2,1.487-4.959.786-5.111.748ZM507.9,6.694l.081-.145.176-.05c1.5-.031,3.728-.159,4.564,1.5a1.9,1.9,0,0,1-.081,1.688c-.975.991-3.011.435-4.741.435V6.694Zm6.793,4.394a3.211,3.211,0,0,0,1.386-1.963,3.424,3.424,0,0,0-.636-2.536c-1.631-2.128-8.453-1.7-12.566-1.744l-.121.973a2.963,2.963,0,0,1,1.415-.063.809.809,0,0,1,.792.715V15.4c-.019,1.112-.933,1.106-2.211.837l-.031,1.1,3.689.062,2.979.091,3.4.184.686.035.7-.045c1.36-.127,2.629-1.233,2.566-3.458a3.941,3.941,0,0,0-2.051-3.117" transform="translate(-454.562 -3.124)"/><path class="a" d="M14.73,15.068A3.119,3.119,0,0,1,13.655,17.5C11.7,19.155,9.536,19.29,7.514,19.779c3.293-6.031,7.826-13.334,8.868-15.473.014-.029-12.537,0-12.537,0l.006,4.866a8.781,8.781,0,0,1,.959.107A8.786,8.786,0,0,1,5.3,7.09a2.208,2.208,0,0,1,.107-.243,2.046,2.046,0,0,1,.268-.381c1.274-1.623,4.231-.658,6.077-.908-3.437,6.032-6.411,10.272-9.917,16.5l.1,1.347,2.514-.978,1.527-.492,1.709-.51,2-.547,2.092-.508,3.3-.7.684-4.319c-.523-.108-1.032-.321-1.032-.285" transform="translate(0 -2.631)"/><path class="a" d="M161.012,11.837l1.652-3.725,1.748,3.466Zm24.923-7.108c.021-.35.068-.533.088-.995-2.526-.014-3.558.023-6.212.011.016.5.016.665.016,1.283l.149-.073.179-.1.165-.067.191-.051.21-.018.241.008.191.035.26.066.287.115c-.925,1.009-2.292,2.582-3.152,3.524,0,0-2.132-2.478-3.006-3.492a2.132,2.132,0,0,1,1.958,0l-.015-1.244h-7.7l0,1c3.094-.966,5.487,3.2,7.283,5.365-1.009,1.176-2.533,3.073-3.8,4.5-.2.194-.357.368-.5.5a3.2,3.2,0,0,1-.876.562,2.884,2.884,0,0,1-1.44.291.659.659,0,0,1-.362-.3l-5.36-11.892h-2.01c-2.16,4.753-3.734,8.749-5.653,12.678-.545,1.1-.84,1.27-2.1,1.436v1l.865-.142,5.345-.8-.421-.858c-1.685.251-1.886-.089-1.7-.757.46-1.015.685-1.642,1.212-2.8L165.1,13.1c.5.942.861,1.75,1.241,2.559.471.893-1.019.834-1.513.85l-.078.99,1.634-.232,2.092-.227,3.157-.292v0l.413-.039,3-.286,1.62-.05c0-.337,0-1.048,0-1.06a3.548,3.548,0,0,1-1.123.185,2.676,2.676,0,0,1-.744-.068c-.273-.077-.517-.2-.281-.589,1.123-1.347,2.244-2.634,3.333-3.829.862,1.172,1.95,2.589,2.816,3.781l.062.107.046.142.015.121-.007.1-.073.083-.123.047-.156.052h-.247l-.2,0-.245-.048-.365-.084L179,15.227v1.05l2.286-.047,3.343-.014h1.392c-.033-.562-.066-.81-.076-1.034.032,0-1.267.392-2.829-1.353l-3.819-4.49c3.032-3.286,4.48-5.1,6.644-4.61" transform="translate(-138.968 -2.117)"/><path class="a" d="M654.645,5.439c.784-.048,3.333-.3,2.15,1.828l-.8,1.091-.95,1.243-1.562,1.965c-1.083-1.465-2.15-3.194-3.1-4.55-.862-1.237-.137-1.6,1.631-1.558-.016-.2,0-.2,0-.663H644.76V5.56c.984-.062,1.124.075,1.667,1l4.752,7.021v2.9c.009,1.045-.971.889-1.94.8l0,1c2.652.22,4.888.587,7.312.924V18.076c-.37-.033-.716-.114-1.021-.155-1.581-.211-1.209-2.613-1.2-4.358,1.717-2.188,3.383-4.842,5.164-7.039a2.383,2.383,0,0,1,.951-.865,2.305,2.305,0,0,1,.963-.14c.014-.214.014-.346.014-.745h-6.763c0,.32-.021.283-.021.665" transform="translate(-583.459 -3.068)"/><path class="a" d="M829.473,1.973c-.806.965-.7,3.863-.907,5.789l.974.247c.749-1.72,1.877-4.065,1.936-5.443-.116-1.351-1.419-1.514-2-.593" transform="translate(-750.265 0)"/><path class="a" d="M874.106,19.074c.681-2.888-.822-4.8-2.672-6.57-1.978-1.894-5.467-3.233-4.694-6.465A1.854,1.854,0,0,1,868.4,4.828a2.977,2.977,0,0,1,2.953,1.948,8.984,8.984,0,0,1,.684,3.315c-.017-.005.442,0,1.063,0V3.543h-1.144l-.012.172-.008.148-.042.128-.064.108-.134.1-.089.018a7.559,7.559,0,0,0-4.045-.763,4.045,4.045,0,0,0-3.683,2.394,4.741,4.741,0,0,0,1.21,5.22c2.366,2.235,6.01,3.211,6.516,6.545.191,1.046-.072,1.938-.809,2.233a4.718,4.718,0,0,1-2.8-.208c-2.119-1.045-3.436-1.689-3.379-5.354,0-.014-.451-.112-1.029-.269l-.013,5.742c.445.113.822.22,1.267.3.04.019-.544-1.206.1-.9.764,1.326,4.523,2.75,7.114,2.009a2.734,2.734,0,0,0,2.048-2.089" transform="translate(-782.017 -1.854)"/><path class="a" d="M971.753,195.039a1.136,1.136,0,0,1-1.61,0,1.12,1.12,0,0,1-.328-.811,1.137,1.137,0,0,1,1.134-1.139,1.087,1.087,0,0,1,.8.336,1.1,1.1,0,0,1,.332.8,1.113,1.113,0,0,1-.332.811m.133-1.743a1.328,1.328,0,1,0,.385.932,1.28,1.28,0,0,0-.385-.932" transform="translate(-878.285 -173.804)"/><path class="a" d="M978.838,199.949a.715.715,0,0,1-.241.032h-.234v-.526h.219a.653.653,0,0,1,.307.053.22.22,0,0,1,.1.212.227.227,0,0,1-.149.228m.379.689c0-.039,0-.075,0-.108v-.108a.407.407,0,0,0-.079-.223.358.358,0,0,0-.251-.144.541.541,0,0,0,.21-.069.313.313,0,0,0,.144-.287.36.36,0,0,0-.227-.366,1.079,1.079,0,0,0-.394-.052h-.508v1.449h.255v-.571h.2a.6.6,0,0,1,.283.047.356.356,0,0,1,.138.334v.114l0,.047a.076.076,0,0,0,0,.016c0,.005,0,.009,0,.013h.241l-.008-.017a.192.192,0,0,1-.014-.075" transform="translate(-885.977 -179.585)"/></g></svg>