<svg xmlns="http://www.w3.org/2000/svg" width="93.87" height="27.127" viewBox="0 0 93.87 27.127"><defs><style>.a{fill:#fff;fill-rule:evenodd;}</style></defs><g transform="translate(0)"><path class="a" d="M-699.079,113.076h.144l.057-.143a11.638,11.638,0,0,0,.373-1.209,1.247,1.247,0,0,0-.876-1.5,1.937,1.937,0,0,0-2.4,1.323l-.011.04-.541,1.172-.149.322h3.4Z" transform="translate(740.507 -102.091)"/><path class="a" d="M-648.335,106.723h-14.509l-2.276,1.492.5-1.492h-7.264l1.815-4.63h-6.913l-6.091,4.63-5.935.044L-692.2,109.1c-1.512-2.881-3.781-2.882-6.889-2.882-4.026-.059-6.507.882-8.282,3.147l-2.354,1.714,3.482-8.992h-7.774l-5.176,3.755,1.469-3.755h-7.821l-6.355,4.768-8.607,21.883.211.31,7.385-.036,5.187-3.333-.987,3.074.216.277h7.479l3.423-2.33a4.439,4.439,0,0,0,4.166,2.349c.628,0,1.264.033,1.937.069,2.542.135,5.169.274,7.63-1.378l-.021-.031,3.26-2.148-.773,3.208.221.28,5.838-.034,5.379-3.313c.293,1.75,1.28,3.438,5.438,3.483l.959.015c3.293.062,4.609.085,8.943-3.511l-.815,3.075.22.266h14.467l5.719-3.832,2.154-5.59h-6.382l9.4-8.834Zm-67.288,18.063h-6.955l3.508-8.858-.211-.31h-4.04l-.211.143-3.574,9.025h-7.041l8.757-22.239h7l-3.191,8.039.21.312h4.085l.211-.144,3.211-8.207h6.957Zm11,.091c-2.943,0-5.165-.79-6.1-2.167a3.21,3.21,0,0,1-.182-3.1l3.892-9.955c1.187-1.518,3.064-3.05,7.923-2.978,3.425,0,5.275.128,6.6,2.854a2.03,2.03,0,0,1-.092,1.877c-.4,1.047-1.895,4.64-2.208,5.39h-8.971l-.211.143-1,2.5a1.626,1.626,0,0,0,.771,2.163c.728.283,1.845-.044,2.6-1.9l.62-1.424h5.645c-.456,1.093-1.49,3.073-1.5,3.094C-697.9,123.737-700.447,124.877-704.621,124.877Zm19.3-10.84-4.3,10.748h-6l6.9-17.609h8.953l-1.683,4.261C-683.262,111.4-684.355,111.562-685.317,114.037Zm6.615,11.073a5.652,5.652,0,0,1-4.692-2.078,3.445,3.445,0,0,1-.137-3.37l6.709-17.109h6.093l-1.818,4.623h7.3l-1.633,4.4h-7.2l-.211.143-3.335,8.329a1.015,1.015,0,0,0,.351,1.393,1,1,0,0,0,.091.049c.579.238,1.428-.071,1.861-1.111l1.939-4.672h4.837l-1.755,4.7C-671.177,122.61-672.171,125.11-678.7,125.11Zm28.463-14.591-10.159,9.546h6.871l-1.78,4.721h-14.215l1.9-4.812,9.126-8-.148-.4h-5.7l1.728-4.4h13.633l-1.251,3.343Z" transform="translate(740.507 -102.091)"/><path class="a" d="M-646.647,108.092a.156.156,0,0,1-.008-.048V107.9a.248.248,0,0,0-.051-.145.227.227,0,0,0-.161-.092.364.364,0,0,0,.136-.045.2.2,0,0,0,.093-.185.232.232,0,0,0-.146-.237.714.714,0,0,0-.256-.034h-.335v.936h.164v-.37h.131a.409.409,0,0,1,.183.03.228.228,0,0,1,.089.215v.125h.155Zm-.253-.494a.465.465,0,0,1-.157.021h-.149v-.339h.141a.416.416,0,0,1,.2.035.141.141,0,0,1,.063.137.146.146,0,0,1-.1.147Z" transform="translate(740.507 -102.091)"/></g></svg>