<svg xmlns="http://www.w3.org/2000/svg" width="131.516" height="25.582" viewBox="0 0 131.516 25.582"><defs><style>.a{fill:#fff;}</style></defs><path class="a" d="M-700.448,232.919q5.247-2.537,10.5-5.069,5.249,2.534,10.5,5.069,1.294,5.692,2.592,11.384-3.63,4.566-7.263,9.129-5.828,0-11.658,0-3.63-4.564-7.262-9.127,1.3-5.693,2.592-11.386m5.711-1.577q-2.989,3.752-5.973,7.506,1.065,4.679,2.131,9.358,4.313,2.086,8.63,4.166l8.63-4.165q1.066-4.679,2.132-9.359-2.987-3.753-5.973-7.506h-9.576m29.641,4.135h9.863a21.089,21.089,0,0,1,2.881.17,5.286,5.286,0,0,1,1.844.566,3.114,3.114,0,0,1,1.228,1.266,4.8,4.8,0,0,1,.357,2.8,3.345,3.345,0,0,1-1.56,2.392,6.883,6.883,0,0,1-2.994.765c1.63,1.28,3.281,2.535,4.9,3.83-1.57.024-3.141,0-4.71.011q-2.272-1.875-4.537-3.757h-3.921q0,1.878,0,3.756H-665.1q0-5.9,0-11.795m3.35,2.717q0,1.4,0,2.806c2.259,0,4.519.005,6.779,0a5.394,5.394,0,0,0,2.1-.325,1.3,1.3,0,0,0,.175-2.144,2.03,2.03,0,0,0-.888-.266,20.361,20.361,0,0,0-2.176-.068h-5.991m16.936-2.716q7.638,0,15.276,0,0,1.358,0,2.716-5.964,0-11.926,0,0,.961,0,1.923,4.3,0,8.6,0,0,1.257,0,2.515h-8.6c0,.64,0,1.281,0,1.922q5.963,0,11.927,0,0,1.358,0,2.716h-15.275q0-5.9,0-11.794m20.939.652a6.307,6.307,0,0,1,2.628-.612c1.338-.074,2.68-.028,4.019-.04q3.569,0,7.138,0,0,1.339,0,2.679h-8.521a16.368,16.368,0,0,0-2.25.079,2.623,2.623,0,0,0-1.718.907,3.658,3.658,0,0,0-.655,2.125,3.9,3.9,0,0,0,.542,2.182,2.357,2.357,0,0,0,1.342.955,6.341,6.341,0,0,0,1.819.183h6.09q0-.978,0-1.956h-4.873q0-1.258,0-2.515h8.224q0,3.577,0,7.155c-3.365,0-6.73,0-10.094,0a8.472,8.472,0,0,1-3.619-.612,5.186,5.186,0,0,1-2.458-2.983,8.373,8.373,0,0,1-.165-3.97,5.251,5.251,0,0,1,2.551-3.575m16.635,11.142q3.215-5.9,6.434-11.795h4.946q3.216,5.9,6.432,11.795h-3.74c-.429-.8-.855-1.6-1.284-2.4h-7.911q-.639,1.2-1.276,2.4h-3.6m6.211-4.92h5.236q-1.311-2.463-2.624-4.923-1.308,2.46-2.612,4.923m14.226-6.875q1.675,0,3.349,0,0,4.538,0,9.078h11.926v2.716H-586.8q0-5.9,0-11.795m-108.318,1.9h5.758c.833,0,1.668-.011,2.5.072a3.465,3.465,0,0,1,1.965.673,2.169,2.169,0,0,1,.723,1.362,3.478,3.478,0,0,1-.089,1.543,2.245,2.245,0,0,1-1.172,1.336,5.225,5.225,0,0,1-1.813.4c1.1.867,2.219,1.716,3.315,2.592-1.063.022-2.127,0-3.19.01q-1.538-1.271-3.073-2.545h-2.653c0,.848,0,1.7,0,2.543h-2.269q0-3.994,0-7.989m2.269,1.841q0,.949,0,1.9h3.88a9.643,9.643,0,0,0,1.7-.084,1.1,1.1,0,0,0,.721-.379.881.881,0,0,0-.273-1.268,3.814,3.814,0,0,0-1.291-.163c-1.579-.01-3.158,0-4.736,0Z" transform="translate(703.04 -227.85)"/></svg>